<?xml version="1.0" encoding="UTF-8" standalone="no"?>
<!DOCTYPE svg PUBLIC "-//W3C//DTD SVG 1.1//EN" "http://www.w3.org/Graphics/SVG/1.1/DTD/svg11.dtd">
<svg version="1.1" xmlns="http://www.w3.org/2000/svg" xmlns:xlink="http://www.w3.org/1999/xlink" preserveAspectRatio="xMidYMid meet" viewBox="51.82546020169673 15.535580931271284 492.3480116647147 236.02626690989882" width="480.35" height="224.03"><defs><path d="M54.83 240.54L54.83 114.4L158.77 20.55L243.53 93.21L244.54 19.54L295 18.54L295 242.56L54.83 240.54Z" id="cNckkInVI"></path><path d="M535.17 240.54L535.17 114.4L431.23 20.55L346.47 93.21L345.46 19.54L295 18.54L295 242.56L535.17 240.54Z" id="dd4sNfWp6"></path></defs><g><g><g><filter id="shadow12147279" x="37.83" y="1.54" width="277.17" height="261.03" filterUnits="userSpaceOnUse" primitiveUnits="userSpaceOnUse"><feFlood></feFlood><feComposite in2="SourceAlpha" operator="in"></feComposite><feGaussianBlur stdDeviation="1.73"></feGaussianBlur><feOffset dx="3" dy="3" result="afterOffset"></feOffset><feFlood flood-color="#4d4646" flood-opacity="0.81"></feFlood><feComposite in2="afterOffset" operator="in"></feComposite><feMorphology operator="dilate" radius="3"></feMorphology><feComposite in2="SourceAlpha" operator="out"></feComposite></filter><path d="M54.83 240.54L54.83 114.4L158.77 20.55L243.53 93.21L244.54 19.54L295 18.54L295 242.56L54.83 240.54Z" id="a3boYnhWyF" fill="white" fill-opacity="1" filter="url(#shadow12147279)"></path></g><use xlink:href="#cNckkInVI" opacity="1" fill="#fafafa" fill-opacity="0"></use><g><use xlink:href="#cNckkInVI" opacity="1" fill-opacity="0" stroke="#ae0315" stroke-width="6" stroke-opacity="1"></use></g><g></g></g><g><g><filter id="shadow7151644" x="278" y="1.54" width="277.17" height="261.03" filterUnits="userSpaceOnUse" primitiveUnits="userSpaceOnUse"><feFlood></feFlood><feComposite in2="SourceAlpha" operator="in"></feComposite><feGaussianBlur stdDeviation="1.73"></feGaussianBlur><feOffset dx="3" dy="3" result="afterOffset"></feOffset><feFlood flood-color="#4d4646" flood-opacity="0.81"></feFlood><feComposite in2="afterOffset" operator="in"></feComposite><feMorphology operator="dilate" radius="3"></feMorphology><feComposite in2="SourceAlpha" operator="out"></feComposite></filter><path d="M535.17 240.54L535.17 114.4L431.23 20.55L346.47 93.21L345.46 19.54L295 18.54L295 242.56L535.17 240.54Z" id="bI7sUSOQu" fill="white" fill-opacity="1" filter="url(#shadow7151644)"></path></g><use xlink:href="#dd4sNfWp6" opacity="1" fill="#fafafa" fill-opacity="0"></use><g><use xlink:href="#dd4sNfWp6" opacity="1" fill-opacity="0" stroke="#ae0315" stroke-width="6" stroke-opacity="1"></use></g><g></g></g></g></svg>